<?xml version="1.0" encoding="UTF-8" standalone="no"?><!DOCTYPE svg PUBLIC "-//W3C//DTD SVG 1.1//EN" "http://www.w3.org/Graphics/SVG/1.1/DTD/svg11.dtd"><svg width="100%" height="100%" viewBox="0 0 2134 2134" version="1.1" xmlns="http://www.w3.org/2000/svg" xmlns:xlink="http://www.w3.org/1999/xlink" xml:space="preserve" xmlns:serif="http://www.serif.com/" style="fill-rule:evenodd;clip-rule:evenodd;stroke-linejoin:round;stroke-miterlimit:2;"><path d="M2108.33,364.583c0,-47.142 -38.274,-85.416 -85.416,-85.416l-1912.5,-0c-47.143,-0 -85.417,38.274 -85.417,85.416l0,170.834c0,47.142 38.274,85.416 85.417,85.416l1912.5,0c47.142,0 85.416,-38.274 85.416,-85.416l0,-170.834Z"/><path d="M2108.33,981.25c0,-47.143 -38.274,-85.417 -85.416,-85.417l-1912.5,0c-47.143,0 -85.417,38.274 -85.417,85.417l0,170.833c0,47.143 38.274,85.417 85.417,85.417l1912.5,0c47.142,0 85.416,-38.274 85.416,-85.417l0,-170.833Z"/><path d="M2108.33,1597.92c0,-47.143 -38.274,-85.417 -85.416,-85.417l-1912.5,-0c-47.143,-0 -85.417,38.274 -85.417,85.417l0,170.833c0,47.143 38.274,85.417 85.417,85.417l1912.5,-0c47.142,-0 85.416,-38.274 85.416,-85.417l0,-170.833Z"/></svg>