<?xml version="1.0" encoding="UTF-8" standalone="no"?><!DOCTYPE svg PUBLIC "-//W3C//DTD SVG 1.1//EN" "http://www.w3.org/Graphics/SVG/1.1/DTD/svg11.dtd"><svg width="100%" height="100%" viewBox="0 0 2134 2134" version="1.1" xmlns="http://www.w3.org/2000/svg" xmlns:xlink="http://www.w3.org/1999/xlink" xml:space="preserve" xmlns:serif="http://www.serif.com/" style="fill-rule:evenodd;clip-rule:evenodd;stroke-linejoin:round;stroke-miterlimit:2;"><path d="M1742.84,269.698c-33.335,-33.335 -87.463,-33.335 -120.798,0l-1352.34,1352.34c-33.335,33.335 -33.335,87.463 0,120.798l120.798,120.797c33.335,33.335 87.462,33.335 120.797,-0l1352.34,-1352.34c33.335,-33.335 33.335,-87.462 -0,-120.797l-120.797,-120.798Z"/><path d="M390.496,269.698c33.335,-33.335 87.462,-33.335 120.797,0l1352.34,1352.34c33.335,33.335 33.335,87.463 -0,120.798l-120.797,120.797c-33.335,33.335 -87.463,33.335 -120.798,-0l-1352.34,-1352.34c-33.335,-33.335 -33.335,-87.462 0,-120.797l120.798,-120.798Z"/></svg>